<?xml version="1.0" encoding="UTF-8" standalone="no"?>
<!-- Created with Inkscape (http://www.inkscape.org/) -->

<svg
   width="1001.8525"
   height="211.21567"
   viewBox="0 0 1001.8525 211.21567"
   version="1.1"
   id="svg1"
   xml:space="preserve"
   xmlns="http://www.w3.org/2000/svg"
   xmlns:svg="http://www.w3.org/2000/svg"><defs
     id="defs1" /><g
     id="layer1"
     transform="translate(-528.04332,-412.84189)"><g
       id="g17"><g
         id="g20"><path
           style="fill:#e34561;fill-opacity:1"
           d="m 841,582.3044 c -6.09704,-1.20974 -6.20055,-4.04249 -0.97717,-26.74309 C 841.66027,548.44503 843,541.97438 843,541.1821 c 0,-1.17869 -1.2377,-1.31856 -6.80937,-0.76954 -10.84414,1.06855 -12.58264,-0.61861 -7.08704,-6.87776 2.98025,-3.39432 3.37333,-3.5348 9.89045,-3.5348 h 6.78686 l 2.17495,-8.25 c 1.9788,-7.50592 15.16757,-53.9305 18.39485,-64.75 1.69424,-5.67994 4.65771,-7.28816 14.41423,-7.82234 10.80939,-0.59183 10.78504,-0.65986 5.58176,15.58879 C 880.44857,483.18489 869.38696,525 870.41273,525 c 1.90063,0 18.51642,-6.91725 24.58218,-10.23371 10.97285,-5.9994 15.21246,-9.08114 22.83499,-16.59853 13.26084,-13.07795 20.02655,-31.33782 16.032,-43.26854 -3.37527,-10.08107 -11.70858,-14.95618 -26.80439,-15.68096 -26.52069,-1.27331 -57.11126,11.90144 -76.31766,32.86851 -5.4397,5.93837 -5.81917,6.1625 -9.45352,5.58373 C 817.38229,477.04878 813,473.19545 813,470.38438 c 0,-2.39852 9.48507,-11.77279 17.04204,-16.84297 20.50135,-13.75491 47.62185,-22.67934 73.45796,-24.17251 32.14225,-1.85762 51.01357,7.60835 54.70139,27.43856 2.45798,13.21711 -3.92845,29.6836 -16.48754,42.5108 -15.60894,15.94214 -34.11172,25.38778 -71.66567,36.58523 -2.89046,0.86185 -3.42366,2.63659 -8.20795,27.31988 -3.24602,16.74705 -3.24939,16.75654 -6.294,17.71257 -4.091,1.2846 -11.47011,1.97881 -14.54623,1.36846 z m 206.2477,-11.12511 c -5.1813,-1.8482 -8.0694,-3.79465 -11.3442,-7.64549 -1.6527,-1.9435 -1.7167,-1.93538 -5.5378,0.70329 -7.2172,4.98387 -13.3779,7.08921 -22.1398,7.566 -12.49397,0.67987 -20.8586,-3.24248 -25.24326,-11.83712 -2.91186,-5.70772 -3.33659,-10.66517 -1.56613,-18.27973 4.32996,-18.62257 17.62771,-32.65789 33.86199,-35.74019 10.6578,-2.02353 19.8864,2.08539 21.2719,9.47111 2.1679,11.55585 -8.7933,23.35449 -28.4853,30.66167 l -9.2197,3.42117 0.50315,3.90662 c 0.33349,2.58931 1.54705,4.94971 3.59905,7 2.8153,2.81307 3.6602,3.08833 9.3241,3.03764 7.6634,-0.0686 13.9467,-3.04938 22.0618,-10.4661 6.2426,-5.7054 8.0484,-5.83237 6.3964,-0.44978 -1.0306,3.35793 -0.8956,3.71763 2.8254,7.52823 4.9092,5.02752 9.7739,6.64991 14.8833,4.96365 8.1096,-2.6764 7.0677,-7.95224 -3.9388,-19.94586 -8.5456,-9.31192 -10.9444,-14.47801 -10.1767,-21.91645 0.7977,-7.72832 4.6092,-12.72439 13.0227,-17.0697 5.7796,-2.98501 7.5783,-3.42183 14.38,-3.49229 5.7646,-0.0597 8.7741,0.41378 11.6423,1.83172 6.4066,3.16725 9.5749,10.4865 6.0605,14.00089 -2.7122,2.71213 -4.9868,1.92284 -6.0022,-2.08274 -2.0488,-8.08168 -10.4778,-9.49444 -17.1053,-2.86696 -2.6918,2.69186 -3.3211,4.10553 -3.3211,7.46097 0,5.68954 2.6685,10.42805 10.7759,19.13485 8.3549,8.97265 9.2241,10.51099 9.2241,16.32477 0,3.65799 -0.6079,5.22333 -3.1553,8.12466 -4.895,5.57511 -10.0774,7.76516 -19.3447,8.17495 -5.99,0.26487 -9.3196,-0.11697 -13.2523,-1.51978 z m -41.4645,-30.57513 C 1016.3846,535.21926 1024,525.6288 1024,517.66284 c 0,-2.92434 -0.4979,-3.93258 -2.3614,-4.78164 -6.4715,-2.94864 -17.0831,9.74509 -21.2032,25.36365 -0.72731,2.75713 -0.85826,4.75515 -0.3116,4.75515 0.5185,0 3.0652,-1.07813 5.6594,-2.39584 z m 265.5803,30.37484 c -2.8251,-1.11875 -6.6501,-3.5919 -8.5,-5.49589 -1.8499,-1.904 -3.731,-3.46661 -4.1802,-3.47246 -0.4492,-0.006 -2.262,1.09171 -4.0285,2.43905 -13.5541,10.33823 -30.459,7.74353 -30.6194,-4.6997 -0.019,-1.5125 -0.2801,-2.75 -0.5792,-2.75 -0.2991,0 -3.2491,2.25139 -6.5556,5.00308 -8.5462,7.11217 -11.3748,8.38772 -18.7304,8.44641 -5.913,0.0472 -6.522,-0.16447 -9.25,-3.21527 -4.1594,-4.65155 -3.8752,-9.47502 1.6833,-28.57736 4.8321,-16.60563 4.8444,-18.48805 0.1129,-17.30052 -3.0713,0.77084 -14.9266,13.1972 -20.3578,21.3384 -3.951,5.92259 -4.8955,8.67482 -7.3735,21.48832 -0.9909,5.12378 -1.3887,5.74668 -4.0421,6.32946 -1.6187,0.35551 -4.4055,0.35204 -6.193,-0.008 -7.1092,-1.43085 -7.0272,-1.35357 -6.4911,-6.10971 0.2725,-2.4173 0.3457,-4.39509 0.1627,-4.39509 -0.183,0 -2.8888,1.79051 -6.0129,3.97892 -8.1307,5.6956 -15.0216,8.02108 -23.7681,8.02108 -12.5146,0 -20.6529,-4.41283 -24.7417,-13.41572 -5.3535,-11.78737 0.9333,-31.05536 13.9517,-42.76004 10.8671,-9.77043 24.701,-13.07246 34.3387,-8.1963 4.0627,2.05553 5.8107,5.25454 5.8107,10.6344 0,5.99729 -2.4932,10.97628 -8.1675,16.31066 -5.9739,5.61607 -8.8792,7.29403 -19.8325,11.45443 -9.2564,3.51586 -9.4909,3.68355 -9.146,6.54047 0.5742,4.75599 2.8127,8.04607 6.7435,9.91135 7.204,3.41852 18.2296,-0.16659 28.2505,-9.18599 l 5.3255,-4.79326 5.1633,-20.46534 5.1632,-20.46533 3.5,-0.78582 c 4.4481,-0.99868 11.4983,-0.093 12.9569,1.66451 0.8491,1.02314 0.2446,4.05901 -2.4968,12.53908 -1.9895,6.15401 -3.4448,11.36152 -3.2341,11.57225 0.2108,0.21074 3.2171,-2.98648 6.6808,-7.10492 13.9273,-16.5599 26.9562,-22.68235 33.7697,-15.86882 2.3121,2.31211 2.5281,3.14263 2.0422,7.85139 -0.299,2.89617 -2.6869,13.00369 -5.3066,22.46114 l -4.763,17.19537 2.0459,2.04592 c 1.9414,1.94145 2.2058,1.96324 5.1771,0.42672 4.4967,-2.32533 15.1279,-13.02062 15.1279,-15.21909 0,-1.55042 5.8298,-25.78317 7.6015,-31.59706 0.4635,-1.52097 -0.1954,-1.75 -5.0341,-1.75 -5.9015,0 -6.7959,-0.93762 -4.2353,-4.43953 0.8801,-1.2036 3.0782,-1.98957 6.4777,-2.31621 l 5.1455,-0.49442 2.4226,-8.12492 c 1.3325,-4.46871 3.4321,-11.6091 4.6659,-15.86753 2.1409,-7.38965 2.4076,-7.78829 5.8497,-8.74443 5.4148,-1.5041 13.0642,-1.2868 13.7074,0.38939 0.296,0.77129 -1.2292,7.18379 -3.3892,14.25 -5.9375,19.4235 -5.8261,17.98433 -1.4485,18.70795 2.0553,0.33973 5.8743,0.62264 8.4868,0.62869 5.0011,0.0116 5.8942,1.10667 3.5,4.29164 -0.96,1.27709 -3.222,1.72743 -9.75,1.94113 l -8.5,0.27824 -4.713,18.5 c -4.7339,18.58248 -5.8159,27.57111 -3.587,29.8 2.8066,2.80664 8.0267,0.57655 17.4078,-7.43686 2.8093,-2.39973 5.5797,-4.36314 6.1564,-4.36314 1.1603,0 0.4942,3.79925 -1.0018,5.71475 -1.2969,1.66053 2.2823,6.5317 6.8932,9.38142 6.9986,4.32539 16.3444,2.14288 16.3444,-3.8169 0,-3.4824 -1.502,-5.90297 -8.6486,-13.93759 -3.5019,-3.93708 -7.2537,-9.11208 -8.3373,-11.5 -7.5325,-16.59922 7.6723,-33.13455 29.0611,-31.60418 7.6704,0.5488 11.0312,2.24908 13.9688,7.06683 2.4404,4.00236 2.4813,6.91028 0.1273,9.04068 -2.9692,2.68704 -4.7529,1.99499 -6.0544,-2.34905 -2.4102,-8.0446 -10.6424,-9.28688 -16.8669,-2.54531 -6.1638,6.67581 -4.1251,14.10789 7.1454,26.04935 7.9138,8.38488 10.0206,12.3621 9.319,17.59242 -0.6829,5.09142 -3.8573,9.32098 -9.46,12.60436 -6.3438,3.71771 -19.1935,4.33042 -26.8909,1.28222 z m -154.5663,-31.03555 c 13.0029,-7.45685 20.9491,-21.24308 15.2283,-26.42035 -1.7137,-1.5509 -2.3775,-1.61995 -5.0261,-0.52284 -6.7508,2.79628 -15.0349,15.48887 -17.4588,26.74974 -0.8939,4.15317 0.2964,4.1849 7.2566,0.19345 z M 930,570.11083 c -2.02457,-0.55863 -2.56025,-1.41609 -2.81683,-4.50884 -0.43113,-5.19669 12.44613,-56.67367 14.59708,-58.35199 0.88772,-0.69266 4.36037,-1.25 7.78843,-1.25 9.18015,0 9.37848,0.58175 4.97017,14.57866 -2.01466,6.39678 -3.47968,11.81384 -3.25561,12.03791 0.22406,0.22407 2.53887,-2.79805 5.14401,-6.71582 9.36899,-14.08966 17.72675,-20.97303 25.59723,-21.08165 6.0266,-0.0832 6.68871,1.07078 4.54297,7.91769 -0.99336,3.16976 -2.66875,7.46479 -3.72307,9.5445 -1.83115,3.61204 -2.01481,3.71275 -4.10317,2.25 -10.32312,-7.23059 -30.04374,13.52075 -34.35377,36.1493 -1.45495,7.63882 -2.09615,9.27393 -3.81803,9.73635 -2.65171,0.71213 -7.37488,0.57534 -10.56941,-0.30611 z"
           id="path1" /><g
           id="g18"
           transform="translate(22.711534)"><path
             style="fill:#ffb4c0;fill-opacity:1"
             d="m 1325.2416,468.06691 134.4982,6.35688 6.6914,8.69889 -4.3494,23.75464 -75.1115,19.23792 2.5093,-32.28624 -63.067,-22.41636 z"
             id="path12" /><path
             style="fill:#ff7c93;fill-opacity:1"
             d="m 1321.2268,499.8513 67.5836,26.43123 69.2565,-20.07435 -8.0297,54.20074 -65.9108,23.42008 -61.5613,-28.43866 z"
             id="path11" /><path
             style="fill:#ff8b9e;fill-opacity:1"
             d="m 1389.6468,494.16357 -1.6728,29.94424 -71.5985,-28.10409 0.6691,-23.0855 3.513,-4.68402 9.0335,4.18216 z"
             id="path13" /><path
             id="path2"
             style="fill:#ff4d6d;fill-opacity:1"
             d="m 1359.7129,427.85938 c -4.2918,0.25303 -8.4371,1.6148 -10.9883,3.66406 -5.1022,4.09852 -8.3432,13.79234 -5.332,20.81836 3.0111,7.02602 12.0449,13.55078 12.0449,13.55078 0,0 -34.2105,-0.25167 -35.5488,-0.16797 -1.3383,0.0836 -3.0078,1.60937 -3.0078,1.60937 0,0 -1.9266,2.15518 -2.5957,3.32618 -0.6692,1.17101 -1.0879,3.76367 -1.0879,3.76367 0,0 -0.084,18.9034 -0.168,21.07812 -0.084,2.17472 1.3379,2.92774 1.3379,2.92774 l 3.8476,2.59179 c 0,0 2.3418,48.26359 2.3418,53.03125 0,4.76765 2.9278,5.01758 2.9278,5.01758 0,0 55.1217,24.92631 58.1328,26.01367 3.0112,1.08736 6.9414,0 6.9414,0 0,0 59.4702,-20.65942 62.2305,-21.91406 2.7602,-1.25465 2.5117,-3.89844 2.5117,-3.89844 l 7.7773,-50.7207 c 0,0 3.178,-2.09242 4.1817,-3.68164 1.0037,-1.58922 1.3379,-4.18164 1.3379,-4.18164 0,0 1.4828,-13.96392 1.4218,-16.72852 -0.069,-3.11509 -1.4218,-4.85156 -1.4218,-4.85156 0,0 -1.9682,-2.9935 -3.4981,-4.58594 -2.9943,-3.11683 -5.7754,-2.54687 -5.7754,-2.54687 l -32.8847,-0.94727 c 0,0 9.2269,-4.73132 12.539,-9.46289 3.3121,-4.73157 5.4402,-12.77443 -0.7109,-21.05468 -6.151,-8.28024 -13.7204,-10.41081 -25.0762,-4.25977 -11.3557,6.15104 -20.3457,24.13086 -20.3457,24.13086 0,0 -9.3949,-19.83216 -11.4023,-22.25781 -2.0075,-2.42565 -1.59,-2.5097 -7.8633,-7.27735 -3.1366,-2.38383 -7.5754,-3.23936 -11.8672,-2.98632 z m -0.2656,14.11132 c 0.7933,0.004 1.4673,0.12454 1.8437,0.25 1.5056,0.50186 9.0344,3.59629 15.0567,11.87696 6.0223,8.28067 5.6048,9.3697 7.3613,12.38086 0,0 -7.0262,-0.33617 -12.9649,-3.26368 -5.9387,-2.9275 -16.3943,-8.36358 -16.8125,-15.13867 -0.3136,-5.08132 3.1358,-6.11723 5.5157,-6.10547 z m 63.7578,5.70118 c 1.3199,-0.0171 2.4917,0.25835 3.3281,0.99023 2.6765,2.34201 1.5903,7.19284 -3.0937,11.375 -4.6841,4.18215 -12.0457,6.27387 -16.0606,6.85937 -4.0149,0.5855 -11.459,0.91993 -11.459,0.91993 0,0 2.5093,-4.68407 4.7676,-7.19336 2.2584,-2.5093 10.2054,-8.78383 13.6348,-10.37305 2.3576,-1.09259 5.979,-2.54068 8.8828,-2.57812 z m -93.043,23.4746 53.5859,0.5918 -36.1972,5.79492 z m -8.9902,0.23633 20.582,7.33399 -0.1172,25.66797 -23.1855,-9.81836 0.1191,-21.17383 z m 75.3515,2.36524 63.0469,4.25781 2.6035,2.95898 -2.0117,21.76368 -25.1953,7.21679 2.3652,-25.19531 z m -8.7539,3.07617 c 0,0 0.4963,0.90441 1.8555,1.05078 1.3592,0.14638 3.3047,-0.27344 3.3047,-0.27344 l 24.5293,12.82617 -1.6543,23.65821 -27.7988,8.27929 -26.9707,-11.11914 0.5918,-25.07812 27.916,9.9375 19.5175,-5.20508 -19.871,2.36523 -22.2383,-8.51562 z m -62.5761,27.44336 16.7988,7.21484 0.5898,49.08985 -15.0215,-6.62305 z m 128.3457,6.74219 -6.8614,47.07812 -17.1523,5.91602 4.4941,-48.02539 z m -91.9121,7.09765 26.2597,10.29102 26.7344,-6.86133 -4.377,49.08984 -25.1953,9.22657 3.3125,-47.78907 -2.6035,0.23633 -3.1933,46.25195 -22.3575,-9.93554 z" /><path
             style="fill:#ff4d6d;fill-opacity:1"
             d="m 1473.0559,414.72207 c 0,0 -2.664,13.15917 -7.6888,18.21654 -5.9616,6.00023 -22.0018,5.67789 -22.0018,5.67789 0,0 13.3749,2.46773 18.3349,6.97906 4.7649,4.33389 5.6778,20.46404 5.6778,20.46404 0,0 3.9097,-13.94204 8.5168,-18.33483 5.0865,-4.84986 20.5824,-3.54867 20.5824,-3.54867 0,0 -15.0419,-3.04503 -19.6361,-8.63513 -4.36,-5.30507 -3.7852,-20.8189 -3.7852,-20.8189 z"
             id="path10" /><path
             style="fill:#ff4d6d;fill-opacity:1;stroke-width:0.520225"
             d="m 1493.8922,460.93588 c 0,0 -1.1385,6.11839 -4.2324,8.34125 -3.6708,2.63727 -11.2889,1.95191 -11.2889,1.95191 0,0 5.977,1.62832 9.0311,3.61118 2.9338,1.90487 3.4124,9.74731 3.4124,9.74731 0,0 2.4909,-6.88071 5.3277,-8.81146 3.132,-2.13165 11.0423,-0.97424 11.0423,-0.97424 0,0 -7.6308,-1.92388 -10.4596,-4.38089 -2.6846,-2.33173 -2.8326,-9.48506 -2.8326,-9.48506 z"
             id="path10-7" /></g><g
           id="g19"><path
             id="path14"
             style="fill:#ff4d6d;fill-opacity:1"
             d="m 746.57653,412.84766 c -5.8276,-0.14417 -9.30882,2.40715 -15.78516,7.55273 -8.63511,6.86078 -18.80924,21.17398 -31.11133,52.40234 -12.30208,31.22836 -12.06445,55.35938 -12.06445,55.35938 0,0 -15.49675,17.6251 -18.57227,18.45312 -3.07552,0.82803 -2.24659,-5.67853 -1.77344,-7.68945 0.47316,-2.01092 1.77369,-6.86002 6.15039,-19.16211 4.37672,-12.30208 4.02124,-20.93826 -0.35546,-24.84179 -4.37671,-3.90354 -11.00086,-2.12936 -15.73243,1.06445 -4.73157,3.19381 -15.49414,16.20703 -15.49414,16.20703 0,0 0.82798,-4.14077 1.89258,-7.68945 1.06461,-3.54867 1.18229,-8.04342 -0.35547,-9.46289 -1.53776,-1.41947 -5.20473,-1.0646 -9.22656,0 -4.02184,1.06461 -10.76367,6.26953 -10.76367,6.26953 0,0 2.77859,4.73047 3.90234,7.03711 1.12375,2.30664 2.89795,6.38782 3.3711,10.88281 0.4732,4.49499 -0.0586,19.57617 -0.0586,19.57617 l 2.66211,-0.0586 c 0,0 2.66012,-6.50651 4.55274,-9.58203 1.89263,-3.07552 5.50199,-9.04869 12.83593,-17.03321 7.33393,-7.98452 8.57518,-7.45197 9.52149,-7.15625 0.94631,0.29572 -0.59216,4.73262 -1.1836,6.38867 -0.59145,1.65605 -5.20428,14.66687 -7.80664,24.01172 -2.60237,9.34485 -2.01117,17.98038 4.84961,21.76563 6.86077,3.78526 16.20573,-1.89202 19.28125,-4.25781 3.07552,-2.36578 12.77539,-13.25 12.77539,-13.25 0,0 1.6566,8.04407 6.86133,12.53906 5.20472,4.49499 15.49625,3.786 23.6582,-0.70899 8.16197,-4.49499 15.73243,-14.90429 15.73243,-14.90429 0,0 0.94652,3.43023 1.65625,5.67773 0.70974,2.2475 3.31205,7.21444 11.11914,8.51563 7.80709,1.30118 12.0654,-1.30129 17.625,-5.44141 5.55959,-4.14012 15.96875,-21.64648 15.96875,-21.64648 0,0 -1.18309,12.0668 -1.65625,15.3789 -0.47315,3.3121 -1.89258,11.70899 -1.89258,11.70899 0,0 -12.30173,4.13997 -27.08789,10.29101 -14.78615,6.15104 -39.98247,23.77615 -38.08985,41.51953 1.89263,17.74339 20.22722,25.3146 37.14258,19.63672 16.91536,-5.67789 26.9708,-20.46375 37.02539,-43.64844 10.05458,-23.18469 13.01172,-83.39453 13.01172,-83.39453 0,0 -7.6888,-0.4735 -9.22656,-0.59179 -1.53776,-0.11829 -5.08603,0.71055 -5.91406,2.01171 -0.82802,1.30119 -5.20577,13.95843 -6.38867,16.32422 -1.18289,2.36578 -11.5922,22.71229 -19.51758,26.97071 -7.92538,4.25841 -7.33439,-6.15179 -6.03321,-13.13086 1.30118,-6.97907 4.37691,-16.91467 6.26954,-21.88281 1.89262,-4.96815 6.15234,-11.5941 6.15234,-12.18555 0,-0.59145 0.11784,-3.42879 -6.0332,-5.20313 -6.15104,-1.77434 -9.22657,0.70899 -9.22657,0.70899 0,0 -3.90359,2.95813 -7.33398,12.0664 -3.43039,9.10827 -5.32422,19.63477 -5.32422,19.63477 0,0 -3.42938,5.20488 -5.55859,8.16211 -2.1292,2.95723 -13.24955,18.80749 -21.05664,14.3125 -7.80709,-4.49499 -4.73047,-23.41992 -4.73047,-23.41992 0,0 10.76508,-9.81777 17.74414,-18.68946 6.97907,-8.87169 24.12921,-31.11193 31.22656,-45.30664 7.09736,-14.19471 9.81986,-38.44256 -0.82617,-41.04492 -2.66151,-0.65059 -4.86607,-0.99882 -6.80859,-1.04687 z m -1.25,14.0332 c 0.29538,-3.6e-4 0.58489,0.0388 0.86718,0.11719 4.51673,1.25465 1.33834,15.39052 -6.6914,32.11914 -8.02974,16.72863 -31.18555,47.39648 -31.18555,47.39648 0,0 9.22486,-35.48658 18.21484,-53.70312 8.42811,-17.07802 14.36421,-25.92435 18.79493,-25.92969 z m 29.38867,133.44531 c 0,0 -1.92238,13.38233 -9.70117,28.10352 -7.77882,14.72119 -16.81286,21.57944 -22.16602,23.33593 -5.35316,1.75653 -13.2997,-0.41709 -14.4707,-7.86132 -1.17101,-7.44424 3.17902,-15.307 8.28125,-20.66016 5.10223,-5.35316 15.05485,-12.12836 19.40429,-14.38672 4.34944,-2.25837 18.65235,-8.53125 18.65235,-8.53125 z" /><path
             id="path16"
             style="fill:#ff4d6d;fill-opacity:1;stroke-width:1.11533"
             d="m 576.54137,483.56641 a 48.498585,47.552273 0 0 0 -48.49805,47.55273 48.498585,47.552273 0 0 0 48.49805,47.55274 48.498585,47.552273 0 0 0 48.49805,-47.55274 48.498585,47.552273 0 0 0 -48.49805,-47.55273 z m 5.4414,35.95898 a 17.979963,17.979963 0 0 1 17.98047,17.98047 17.979963,17.979963 0 0 1 -17.98047,17.98047 17.979963,17.979963 0 0 1 -17.98046,-17.98047 17.979963,17.979963 0 0 1 17.98046,-17.98047 z" /></g></g></g></g></svg>
